<svg id="visual" viewBox="0 0 960 540" width="960" height="540" xmlns="http://www.w3.org/2000/svg" xmlns:xlink="http://www.w3.org/1999/xlink" version="1.1"><rect x="0" y="0" width="960" height="540" fill="#061928"></rect><path d="M0 330L16 313.2C32 296.3 64 262.7 96 267.2C128 271.7 160 314.3 192 330C224 345.7 256 334.3 288 330.2C320 326 352 329 384 322.5C416 316 448 300 480 295C512 290 544 296 576 286C608 276 640 250 672 254.2C704 258.3 736 292.7 768 299.8C800 307 832 287 864 273C896 259 928 251 944 247L960 243L960 541L944 541C928 541 896 541 864 541C832 541 800 541 768 541C736 541 704 541 672 541C640 541 608 541 576 541C544 541 512 541 480 541C448 541 416 541 384 541C352 541 320 541 288 541C256 541 224 541 192 541C160 541 128 541 96 541C64 541 32 541 16 541L0 541Z" fill="#ad2ea6"></path><path d="M0 359L16 346.3C32 333.7 64 308.3 96 303.7C128 299 160 315 192 327.5C224 340 256 349 288 357.7C320 366.3 352 374.7 384 370.3C416 366 448 349 480 332C512 315 544 298 576 293.5C608 289 640 297 672 302.3C704 307.7 736 310.3 768 305.8C800 301.3 832 289.7 864 287.8C896 286 928 294 944 298L960 302L960 541L944 541C928 541 896 541 864 541C832 541 800 541 768 541C736 541 704 541 672 541C640 541 608 541 576 541C544 541 512 541 480 541C448 541 416 541 384 541C352 541 320 541 288 541C256 541 224 541 192 541C160 541 128 541 96 541C64 541 32 541 16 541L0 541Z" fill="#902492"></path><path d="M0 331L16 343.3C32 355.7 64 380.3 96 391.3C128 402.3 160 399.7 192 401.2C224 402.7 256 408.3 288 404.8C320 401.3 352 388.7 384 374C416 359.3 448 342.7 480 350C512 357.3 544 388.7 576 389.2C608 389.7 640 359.3 672 357.3C704 355.3 736 381.7 768 392.5C800 403.3 832 398.7 864 384.8C896 371 928 348 944 336.5L960 325L960 541L944 541C928 541 896 541 864 541C832 541 800 541 768 541C736 541 704 541 672 541C640 541 608 541 576 541C544 541 512 541 480 541C448 541 416 541 384 541C352 541 320 541 288 541C256 541 224 541 192 541C160 541 128 541 96 541C64 541 32 541 16 541L0 541Z" fill="#741a7e"></path><path d="M0 469L16 456.7C32 444.3 64 419.7 96 412.7C128 405.7 160 416.3 192 424.2C224 432 256 437 288 430.5C320 424 352 406 384 397.3C416 388.7 448 389.3 480 394.8C512 400.3 544 410.7 576 413.7C608 416.7 640 412.3 672 420C704 427.7 736 447.3 768 446C800 444.7 832 422.3 864 413.2C896 404 928 408 944 410L960 412L960 541L944 541C928 541 896 541 864 541C832 541 800 541 768 541C736 541 704 541 672 541C640 541 608 541 576 541C544 541 512 541 480 541C448 541 416 541 384 541C352 541 320 541 288 541C256 541 224 541 192 541C160 541 128 541 96 541C64 541 32 541 16 541L0 541Z" fill="#590f6a"></path><path d="M0 500L16 493.2C32 486.3 64 472.7 96 464.8C128 457 160 455 192 455.2C224 455.3 256 457.7 288 460C320 462.3 352 464.7 384 465.5C416 466.3 448 465.7 480 462.2C512 458.7 544 452.3 576 458.8C608 465.3 640 484.7 672 495.5C704 506.3 736 508.7 768 499C800 489.3 832 467.7 864 466.3C896 465 928 484 944 493.5L960 503L960 541L944 541C928 541 896 541 864 541C832 541 800 541 768 541C736 541 704 541 672 541C640 541 608 541 576 541C544 541 512 541 480 541C448 541 416 541 384 541C352 541 320 541 288 541C256 541 224 541 192 541C160 541 128 541 96 541C64 541 32 541 16 541L0 541Z" fill="#400556"></path></svg>